<svg xmlns="http://www.w3.org/2000/svg" version="1.1" viewBox="-5.0 -10.0 110.0 135.0">
 <g fill-rule="evenodd">
  <path fill="#4D4D4D" d="m39.637 87.695h-12.246c-0.50781 0-0.9375-0.40625-0.95703-0.91406l-1.8711-36.152-1.4023 7.1016c-0.082031 0.42578-0.16406 0.83594-0.22266 1.2227-0.48828 2.707-0.97656 5.5117-5.1055 4.8438-1.3828-0.22266-2.3398-0.79297-2.8477-1.707-0.9375-1.6875-0.019531-3.9688 0.79297-5.9609l0.16406-0.40625c1.1797-2.9297 2.0742-7.1016 2.8672-10.805 0.32422-1.4844 0.62891-2.8906 0.9375-4.1719 0.89453-3.6406 3.6836-6.4492 7.3047-7.3242 0.32422-0.082031 0.67188 0.019531 0.91406 0.26562 0.20312 0.20312 5.168 5.0039 10.457-0.019531 0.24219-0.22266 0.58984-0.32422 0.91406-0.24219 3.6641 0.95703 6.4883 3.8242 7.3867 7.4883 1.6289 6.7734 3.7852 11.371 6.1016 12.941 1.5039 1.0156 2.0352 3.0508 1.1797 4.6172-0.46875 0.875-1.2617 1.4258-2.2773 1.6055-1.2812 0.20312-2.5625-0.26562-3.4375-1.2422-1.6289-1.8125-4.9023-5.7383-6.4102-9.6836l-1.2422 37.66c-0.0625 0.46875-0.48828 0.89453-0.99609 0.89453zm-11.312-1.9336h10.375l1.4258-42.949c0.019531-0.40625 0.28516-0.75391 0.67188-0.89453 0.38672-0.12109 0.8125 0 1.0586 0.32422 0.69141 0.89453 1.0977 1.9922 1.1172 3.1133 0.082032 4.4336 5.1875 10.418 6.7344 12.145 0.42578 0.48828 1.0781 0.73438 1.6875 0.62891 0.40625-0.0625 0.69141-0.26562 0.875-0.60938 0.38672-0.71094 0.14062-1.6484-0.57031-2.1172-3.457-2.3594-5.6562-8.9727-6.8984-14.078-0.67188-2.8086-2.7461-5.0234-5.4922-5.9219-5.5117 4.8203-10.762 1.2422-12.289 0-2.6875 0.83594-4.7422 3.0117-5.4102 5.7773-0.30469 1.2617-0.60938 2.6445-0.91406 4.1289-0.8125 3.7656-1.75 8.0352-2.9688 11.109l-0.16406 0.40625c-0.60938 1.5273-1.3828 3.418-0.89453 4.293 0.20312 0.36719 0.71094 0.60937 1.4844 0.75391 2.1758 0.36719 2.3594-0.26562 2.8906-3.2539 0.0625-0.40625 0.14062-0.8125 0.22266-1.2617l2.9102-14.711c0.10156-0.48828 0.52734-0.8125 1.0156-0.77344 0.48828 0.039062 0.875 0.42578 0.89453 0.91406l2.2383 42.969z"/>
  <path fill="#4D4D4D" d="m32.945 34.191c-3.3359 0-6.3867-2.3594-7.5898-5.8789-0.46875-1.3633-0.60938-2.625-0.44922-3.7227-1.0156-0.67188-1.4023-2.2578-1.4023-3.6406v-0.082031c0.44922-5.3711 4.2109-6.6719 6.4102-6.957 0.97656-0.14062 2.0352-0.019531 3.1523 0.36719 1.9141 0.67188 5.0469-1.0586 6.082-1.7891 0.24219-0.16406 0.52734-0.22266 0.8125-0.14062 0.28516 0.082032 0.50781 0.28516 0.62891 0.55078 1.5859 3.6016 0.12109 6.2266-0.0625 6.5117-0.16406 0.28516-0.32422 0.55078-0.48828 0.77344 0.69141 1.4453 1.0391 3.7656 1.0391 4.8438-0.019531 5.0859-3.6641 9.1758-8.1367 9.1758zm-6-9.9688c-0.039062 0.14062-0.0625 0.28516-0.10156 0.42578-0.18359 0.85547-0.082031 1.8906 0.32422 3.0703 0.9375 2.7656 3.1953 4.5586 5.7578 4.5586 3.418 0 6.1836-3.2344 6.1836-7.2227 0-0.875-0.24219-2.2383-0.55078-3.2539-2.4414 1.8906-4.9648 0.44922-6.7734-0.60938-1.1602-0.67188-2.2383-1.3008-2.9297-0.99609-0.50781 0.22266-1.2617 1.1172-1.9141 3.9688 0.019532 0.019532 0 0.039063 0 0.0625zm-1.5039-3.2148c0 0.34766 0.039063 0.69141 0.12109 1.0156 0.65234-1.9727 1.4648-3.1133 2.543-3.582 1.5859-0.69141 3.1523 0.20312 4.6797 1.0781 2.0742 1.1992 3.6406 2.0938 5.3086 0.0625 0.019531-0.039062 0.0625-0.0625 0.082031-0.10156 0.22266-0.28516 0.44922-0.62891 0.69141-1.0391 0-0.019531 0.019531-0.019531 0.019531-0.039062 0.039062-0.0625 0.875-1.4844 0.30469-3.6641-1.5469 0.875-4.4141 2.1758-6.7539 1.3633-0.83594-0.28516-1.5664-0.38672-2.2383-0.28516-2.9102 0.38672-4.4961 2.1367-4.7617 5.1875z"/>
  <path fill="#4D4D4D" d="m27.289 35.289c-0.44922 0-0.85547-0.32422-0.95703-0.77344-0.10156-0.52734 0.24219-1.0391 0.75391-1.1406 0.69141-0.14062 0.52734-1.6875 0.52734-1.707-0.0625-0.52734 0.30469-1.0156 0.83594-1.0781 0.52734-0.0625 1.0156 0.30469 1.0781 0.83594 0.22266 1.668-0.34766 3.5195-2.0742 3.8438-0.039063 0-0.10156 0.019531-0.16406 0.019531z"/>
  <path fill="#4D4D4D" d="m39.09 35.289c-0.039063 0-0.10156 0-0.14062-0.019531-2.0938-0.32422-2.4219-2.7656-2.2578-4.1523 0.0625-0.52734 0.52734-0.91406 1.0586-0.85547 0.52734 0.0625 0.91406 0.52734 0.85547 1.0586-0.039063 0.38672-0.039063 1.9336 0.62891 2.0352 0.52734 0.082031 0.89453 0.57031 0.8125 1.0977-0.082031 0.48828-0.48828 0.83594-0.95703 0.83594z"/>
  <path fill="#4D4D4D" d="m72.555 34.191c-0.039063 0-0.10156 0-0.14063-0.019531-2.0938-0.32422-2.4023-2.9922-2.2383-4.4961 0.0625-0.52734 0.52734-0.91406 1.0586-0.85547 0.52734 0.0625 0.91406 0.52734 0.85547 1.0586-0.082032 0.8125 0.0625 2.3203 0.60938 2.4023 0.52734 0.082031 0.89453 0.57031 0.8125 1.0977-0.082031 0.48828-0.48828 0.8125-0.95703 0.8125z"/>
  <path fill="#4D4D4D" d="m63.258 34.191c-0.46875 0-0.89453-0.34766-0.95703-0.83594-0.082031-0.52734 0.28516-1.0156 0.8125-1.0977 0.58984-0.082031 0.67188-1.5664 0.60938-2.1758-0.0625-0.52734 0.32422-0.99609 0.85547-1.0586 0.52734-0.0625 0.99609 0.32422 1.0586 0.85547 0.14062 1.4453-0.16406 3.9883-2.2578 4.293-0.039062 0.019531-0.082031 0.019531-0.12109 0.019531z"/>
  <path fill="#4D4D4D" d="m33.168 87.695c-0.52734 0-0.97656-0.42578-0.97656-0.97656v-21.91c0-0.52734 0.42578-0.97656 0.97656-0.97656s0.97656 0.42578 0.97656 0.97656v21.91c-0.019531 0.55078-0.44922 0.97656-0.97656 0.97656z"/>
  <path fill="#4D4D4D" d="m33.168 56.387c-0.28516 0-0.55078-0.12109-0.73438-0.34766l-2.8281-3.3789c-0.18359-0.22266-0.26562-0.50781-0.20312-0.79297l2.2578-11.941-2.1172-3.1133c-0.30469-0.44922-0.18359-1.0391 0.26562-1.3438 0.44922-0.30469 1.0391-0.18359 1.3438 0.26562l2.0352 2.9922 1.9336-2.8477c0.30469-0.44922 0.89453-0.55078 1.3438-0.26562 0.44922 0.30469 0.55078 0.89453 0.26562 1.3438l-2.0156 2.9688 2.2578 11.941c0.0625 0.28516-0.019531 0.57031-0.20312 0.79297l-2.8281 3.3789c-0.22266 0.22266-0.48828 0.34766-0.77344 0.34766zm-1.8125-4.6172 1.8125 2.1562 1.7891-2.1562-1.7891-9.4805z"/>
  <path fill="#4D4D4D" d="m53.555 57.832c-0.30469 0-0.58984-0.14062-0.77344-0.38672-0.32422-0.42578-0.22266-1.0391 0.20312-1.3438 5.3711-3.9688 7.5078-13.348 7.5273-13.426 0.12109-0.52734 0.62891-0.85547 1.1602-0.73438 0.52734 0.12109 0.85547 0.62891 0.73438 1.1602-0.10156 0.40625-2.3203 10.191-8.2617 14.566-0.20312 0.10156-0.40625 0.16406-0.58984 0.16406z"/>
  <path fill="#4D4D4D" d="m70.785 63.223c-0.22266 0-0.40625-0.019531-0.57031-0.0625-0.9375-0.22266-1.6484-0.95703-1.8906-1.9727-0.36719-1.4453 0.24219-3.1328 1.5469-4.293 1.5039-1.3828 4.1523-4.7617 4.6172-11.68 0-0.26562 0-2.582-0.42578-4.6797-0.10156-0.52734 0.22266-1.0391 0.75391-1.1406 0.52734-0.10156 1.0391 0.22266 1.1406 0.75391 0.48828 2.4219 0.46875 5.0039 0.44922 5.1055v0.0625c-0.50781 7.6094-3.5195 11.414-5.25 13.02-0.95703 0.83594-1.1172 1.8125-0.97656 2.3789 0.039062 0.18359 0.16406 0.48828 0.46875 0.57031 0.42578 0.10156 1.2422-0.24219 2.2773-1.4844 5.7188-6.7969 5.5352-14.73 5.1875-17.824v-0.082031c-0.082031-0.65234-0.14062-1.3008-0.16406-1.9922-0.12109-3.418-3.8672-5.1055-5.1875-5.5938-3.8867 2.9688-7.832 1.4453-9.7461-0.039063-3.7852 1.0156-4.4766 4.6602-4.5352 5.0234-0.50781 8.668-7.2227 13.938-7.5078 14.16-0.42578 0.32422-1.0391 0.24219-1.3633-0.18359s-0.24219-1.0391 0.18359-1.3633c0.0625-0.0625 6.3281-4.9844 6.7539-12.777v-0.082031c0.26562-1.9531 1.9531-5.8789 6.5117-6.7969 0.30469-0.0625 0.60938 0.019531 0.83594 0.22266 0.16406 0.14062 3.9453 3.4805 8.0156-0.019531 0.24219-0.20312 0.58984-0.28516 0.89453-0.20312 0.28516 0.082031 6.8555 2.0352 7.0586 7.5469 0.019531 0.60938 0.082031 1.1992 0.16406 1.832v0.082032c0.36719 3.3359 0.57031 11.902-5.6367 19.289-1.4844 1.8125-2.7656 2.2188-3.6016 2.2188z"/>
  <path fill="#4D4D4D" d="m69.484 52.988c-0.91406 0-1.8711-0.14062-2.8477-0.42578-2.5625-0.75391-4.457-2.2383-4.5352-2.3008-0.32422-0.26562-0.44922-0.71094-0.30469-1.1172 1.0977-2.7891-1.0977-5.6367-1.1172-5.6758-0.32422-0.42578-0.26563-1.0156 0.16406-1.3633 0.42578-0.32422 1.0156-0.26562 1.3633 0.16406 0.12109 0.14062 2.582 3.2969 1.6289 6.8555 1.6484 1.0977 6.6523 3.8867 10.273-0.26562 0.34766-0.40625 0.95703-0.44922 1.3633-0.10156 0.40625 0.34766 0.44922 0.95703 0.10156 1.3633-1.6484 1.8906-3.7227 2.8672-6.082 2.8672z"/>
  <path fill="#4D4D4D" d="m84.133 85.562c-0.20312 0-0.38672-0.0625-0.55078-0.18359-1.1406-0.79297-4.6367-3.2148-6.0234-1.668-0.8125 0.875-1.8906 1.3633-3.0703 1.3828-1.1602 0.019531-2.2578-0.40625-3.0938-1.2227-1.3438-1.3242-2.1992-1.8711-2.8477-1.8516-0.60938 0.019531-1.3633 0.57031-2.4609 1.7891-0.77344 0.85547-1.8125 1.3438-2.9297 1.4023-1.1406 0.0625-2.2188-0.32422-3.0703-1.0781-0.40625-0.36719-0.77344-0.75391-1.0977-1.0781-1.2227-1.3008-1.5664-1.6484-3.0703-0.58984l-3.1133 2.1758c-0.24219 0.18359-0.57031 0.22266-0.85547 0.12109-0.28516-0.10156-0.50781-0.32422-0.60938-0.62891-2.2773-7.1602-1.1602-15.543 3.2539-24.25 3.2969-6.5117 7.2227-10.863 7.3867-11.047 0.36719-0.38672 0.97656-0.42578 1.3633-0.0625 0.38672 0.36719 0.42578 0.97656 0.0625 1.3633-0.039062 0.039062-3.9258 4.375-7.1211 10.66-2.7461 5.4531-5.5117 13.469-3.4805 21.465l2.0156-1.4023c2.8672-1.9922 4.3125-0.48828 5.5742 0.85547 0.30469 0.32422 0.62891 0.65234 0.97656 0.97656 0.95703 0.85547 2.4219 0.77344 3.2773-0.18359 1.0977-1.2227 2.3398-2.3789 3.8438-2.4219 1.4648-0.039063 2.7461 0.9375 4.2539 2.4023 0.44922 0.44922 1.0586 0.69141 1.6875 0.67188 0.65234-0.019531 1.2422-0.28516 1.6875-0.75391 1.9922-2.1992 5.1484-0.77344 7.2031 0.48828 0.36719-4.8633 0.73438-19.715-7.1406-26.57-0.40625-0.34766-0.44922-0.95703-0.10156-1.3633 0.34766-0.40625 0.95703-0.44922 1.3633-0.10156 4.2734 3.7031 6.9375 10.07 7.7305 18.391 0.58984 6.207-0.0625 11.25-0.082031 11.477-0.039062 0.32422-0.26562 0.62891-0.57031 0.75391-0.12109 0.0625-0.26563 0.082031-0.38672 0.082031z"/>
  <path fill="#4D4D4D" d="m60.309 25.605c-0.44922 0-0.85547-0.32422-0.95703-0.77344-0.10156-0.52734 0.24219-1.0391 0.75391-1.1406 0.0625-0.019531 3.7852-0.85547 6.8555-5.5938 0.28516-0.42578 0.85547-0.57031 1.2812-0.30469 0.12109 0.082031 0.24219 0.18359 0.32422 0.28516 1.0391 1.4258 4.4141 5.3711 6.2461 5.6172 0.52734 0.0625 0.89453 0.55078 0.83594 1.0781-0.0625 0.52734-0.55078 0.89453-1.0781 0.83594-2.3398-0.32422-5.2695-3.5586-6.7344-5.3516-3.3789 4.5156-7.1602 5.3086-7.3438 5.332-0.0625 0.019531-0.12109 0.019531-0.18359 0.019531z"/>
  <path fill="#4D4D4D" d="m67.773 32.461c-3.4375 0-6.2461-3.9258-6.2461-8.7266 0-0.52734 0.42578-0.97656 0.97656-0.97656 0.55078 0 0.97656 0.42578 0.97656 0.97656 0 3.6211 2.0156 6.7969 4.3125 6.7969 2.3398 0 4.3125-3.0117 4.3125-6.5938 0-0.52734 0.42578-0.97656 0.97656-0.97656s0.97656 0.42578 0.97656 0.97656c-0.039063 4.6992-2.8477 8.5234-6.2852 8.5234z"/>
  <path fill="#4D4D4D" d="m81.406 42.387c-0.039062 0-0.10156 0-0.14062-0.019531-0.52734-0.082032-0.89453-0.57031-0.8125-1.0977 1.3828-8.8516-2.4023-17.559-4.7812-21.953-1.5039-2.7891-4.3555-4.5352-7.3867-4.5977-3.6641-0.082031-5.7188 2.1758-5.7383 2.2188-0.039063 0.039062-0.0625 0.0625-0.10156 0.10156-4.375 3.6406-6.5703 18.902-7.0391 24.477-0.039062 0.52734-0.50781 0.9375-1.0391 0.875-0.52734-0.039063-0.9375-0.50781-0.875-1.0391 0.082031-0.85547 1.832-20.793 7.6719-25.758 0.40625-0.42578 2.9297-2.8672 7.1602-2.7891 3.7422 0.0625 7.2031 2.2188 9.0547 5.5938 2.5039 4.6172 6.4688 13.773 5.0039 23.172-0.10156 0.46875-0.50781 0.8125-0.97656 0.8125z"/>
  <path fill="#4D4D4D" d="m67.836 43.832h-0.082032c-0.73438-0.019531-1.4023-0.36719-1.832-0.97656l-5.9219-8.0977c-0.30469-0.42578-0.22266-1.0391 0.20312-1.3438 0.42578-0.30469 1.0391-0.22266 1.3438 0.20313l5.9219 8.0977c0.10156 0.14062 0.24219 0.16406 0.32422 0.18359 0.0625 0 0.22266 0 0.34766-0.16406l6.4492-7.8125c0.34766-0.40625 0.95703-0.46875 1.3633-0.12109 0.40625 0.34766 0.46875 0.95703 0.12109 1.3633l-6.4492 7.8125c-0.40625 0.52734-1.0781 0.85547-1.7891 0.85547z"/>
  <path fill="#4D4D4D" d="m79.555 74.535c-1.7305 0-3.457-0.8125-4.4961-2.3008-0.58984-0.83594-1.5273-1.3828-2.543-1.4844s-2.0352 0.24219-2.7891 0.95703c-1.7695 1.6484-3.4805 2.4609-5.1289 2.4023-1.3242-0.0625-2.543-0.67188-3.6016-1.832l-1.1797-1.3242c-1.1602-1.2812-3.1328-1.5273-4.5781-0.57031l-3.1523 2.1172c-0.44922 0.30469-1.0391 0.18359-1.3438-0.26562-0.30469-0.44922-0.18359-1.0391 0.26562-1.3438l3.1523-2.1172c2.2383-1.5039 5.2891-1.1172 7.1016 0.875l1.1797 1.3242c0.71094 0.77344 1.4453 1.1602 2.2383 1.1992 1.3828 0.0625 2.7891-0.97656 3.7227-1.8711 1.1602-1.0977 2.7266-1.6289 4.3125-1.4648 1.5859 0.16406 3.0117 0.99609 3.9258 2.3008 1.0391 1.4648 3.0703 1.9141 4.6602 1.0391l2.2578-1.3008c0.46875-0.26562 1.0586-0.10156 1.3242 0.36719 0.26563 0.46875 0.10156 1.0586-0.36719 1.3242l-2.2773 1.3008c-0.83594 0.44922-1.75 0.67187-2.6836 0.67187z"/>
  <path fill="#4D4D4D" d="m40.531 60.68h-14.527c-0.52734 0-0.97656-0.42578-0.97656-0.97656s0.42578-0.97656 0.97656-0.97656h14.527c0.52734 0 0.97656 0.42578 0.97656 0.97656s-0.44922 0.97656-0.97656 0.97656z"/>
 </g>
</svg>